<svg width="124" height="36" viewBox="0 0 124 36" fill="none" xmlns="http://www.w3.org/2000/svg">
<path d="M1.28 35C0.928 35 0.656 34.904 0.464 34.712C0.272 34.488 0.176 34.216 0.176 33.896V2.552C0.176 2.2 0.272 1.928 0.464 1.736C0.656 1.512 0.928 1.4 1.28 1.4H3.68C4.032 1.4 4.304 1.512 4.496 1.736C4.72 1.928 4.832 2.2 4.832 2.552V14.456L17.648 2.168C17.776 2.04 17.984 1.88 18.272 1.688C18.592 1.496 19.008 1.4 19.52 1.4H22.112C22.368 1.4 22.592 1.496 22.784 1.688C22.976 1.88 23.072 2.104 23.072 2.36C23.072 2.616 23.008 2.824 22.88 2.984L8.048 17.48L23.84 33.368C24 33.56 24.08 33.784 24.08 34.04C24.08 34.296 23.984 34.52 23.792 34.712C23.6 34.904 23.376 35 23.12 35H20.432C19.888 35 19.472 34.904 19.184 34.712C18.896 34.488 18.688 34.328 18.56 34.232L4.832 20.696V33.896C4.832 34.216 4.72 34.488 4.496 34.712C4.304 34.904 4.032 35 3.68 35H1.28ZM30.1081 35C29.7561 35 29.4841 34.904 29.2921 34.712C29.1001 34.488 29.0041 34.216 29.0041 33.896V2.552C29.0041 2.2 29.1001 1.928 29.2921 1.736C29.4841 1.512 29.7561 1.4 30.1081 1.4H41.0041C44.3001 1.4 46.9561 1.896 48.9721 2.888C50.9881 3.88 52.4601 5.352 53.3881 7.304C54.3161 9.224 54.7961 11.592 54.8281 14.408C54.8601 15.848 54.8761 17.112 54.8761 18.2C54.8761 19.288 54.8601 20.536 54.8281 21.944C54.7641 24.888 54.2681 27.336 53.3401 29.288C52.4441 31.208 51.0041 32.648 49.0201 33.608C47.0681 34.536 44.4761 35 41.2441 35H30.1081ZM33.7081 30.92H41.0041C43.2121 30.92 44.9721 30.616 46.2841 30.008C47.5961 29.4 48.5401 28.424 49.1161 27.08C49.7241 25.736 50.0441 23.96 50.0761 21.752C50.1401 20.792 50.1721 19.96 50.1721 19.256C50.1721 18.52 50.1721 17.8 50.1721 17.096C50.1721 16.36 50.1401 15.528 50.0761 14.6C50.0121 11.496 49.2761 9.208 47.8681 7.736C46.4601 6.232 44.0921 5.48 40.7641 5.48H33.7081V30.92Z" fill="#101218"/>
<path d="M74.9619 35.48C71.9539 35.48 69.3779 34.984 67.2339 33.992C65.1219 32.968 63.4739 31.496 62.2899 29.576C61.1379 27.624 60.5139 25.272 60.4179 22.52C60.3859 21.144 60.3699 19.672 60.3699 18.104C60.3699 16.536 60.3859 15.048 60.4179 13.64C60.5139 10.952 61.1379 8.664 62.2899 6.776C63.4739 4.888 65.1379 3.448 67.2819 2.456C69.4579 1.432 72.0179 0.919998 74.9619 0.919998C77.3299 0.919998 79.4099 1.224 81.2019 1.832C82.9939 2.44 84.4979 3.24 85.7139 4.232C86.9299 5.192 87.8579 6.248 88.4979 7.4C89.1379 8.552 89.4739 9.656 89.5059 10.712C89.5059 11 89.4099 11.256 89.2179 11.48C89.0259 11.672 88.7699 11.768 88.4499 11.768H82.4979C82.1779 11.768 81.9219 11.704 81.7299 11.576C81.5699 11.448 81.4259 11.256 81.2979 11C81.0739 10.424 80.7059 9.848 80.1939 9.272C79.7139 8.664 79.0579 8.152 78.2259 7.736C77.3939 7.32 76.3059 7.112 74.9619 7.112C72.9459 7.112 71.3459 7.64 70.1619 8.696C69.0099 9.752 68.3859 11.48 68.2899 13.88C68.1939 16.632 68.1939 19.432 68.2899 22.28C68.3859 24.776 69.0259 26.568 70.2099 27.656C71.4259 28.744 73.0419 29.288 75.0579 29.288C76.3699 29.288 77.5379 29.064 78.5619 28.616C79.6179 28.136 80.4499 27.4 81.0579 26.408C81.6659 25.416 81.9699 24.152 81.9699 22.616V21.416H76.7379C76.4179 21.416 76.1459 21.304 75.9219 21.08C75.6979 20.824 75.5859 20.536 75.5859 20.216V17.144C75.5859 16.792 75.6979 16.504 75.9219 16.28C76.1459 16.056 76.4179 15.944 76.7379 15.944H88.4979C88.8499 15.944 89.1379 16.056 89.3619 16.28C89.5859 16.504 89.6979 16.792 89.6979 17.144V22.376C89.6979 25.128 89.0899 27.48 87.8739 29.432C86.6899 31.384 84.9779 32.888 82.7379 33.944C80.5299 34.968 77.9379 35.48 74.9619 35.48ZM108.896 35.48C105.984 35.48 103.472 35 101.36 34.04C99.248 33.08 97.6 31.64 96.416 29.72C95.232 27.768 94.592 25.32 94.496 22.376C94.464 21 94.448 19.64 94.448 18.296C94.448 16.92 94.464 15.528 94.496 14.12C94.592 11.24 95.232 8.824 96.416 6.872C97.632 4.888 99.296 3.4 101.408 2.408C103.552 1.416 106.048 0.919998 108.896 0.919998C111.712 0.919998 114.176 1.416 116.288 2.408C118.432 3.4 120.112 4.888 121.328 6.872C122.544 8.824 123.184 11.24 123.248 14.12C123.312 15.528 123.344 16.92 123.344 18.296C123.344 19.64 123.312 21 123.248 22.376C123.152 25.32 122.512 27.768 121.328 29.72C120.144 31.64 118.496 33.08 116.384 34.04C114.272 35 111.776 35.48 108.896 35.48ZM108.896 29.288C110.752 29.288 112.272 28.728 113.456 27.608C114.672 26.456 115.312 24.632 115.376 22.136C115.44 20.728 115.472 19.416 115.472 18.2C115.472 16.952 115.44 15.64 115.376 14.264C115.344 12.6 115.04 11.24 114.464 10.184C113.888 9.128 113.12 8.36 112.16 7.88C111.232 7.368 110.144 7.112 108.896 7.112C107.648 7.112 106.544 7.368 105.584 7.88C104.624 8.36 103.856 9.128 103.28 10.184C102.736 11.24 102.432 12.6 102.368 14.264C102.336 15.64 102.32 16.952 102.32 18.2C102.32 19.416 102.336 20.728 102.368 22.136C102.464 24.632 103.104 26.456 104.288 27.608C105.472 28.728 107.008 29.288 108.896 29.288Z" fill="#4785FF"/>
</svg>
